<?xml version="1.0" standalone="yes"?>
<svg xmlns="http://www.w3.org/2000/svg" width="567" height="446">
<path style="fill:#ffffff; stroke:none;" d="M0 0L0 446L567 446L567 0L0 0z"/>
<path style="fill:#d9f0ff; stroke:none;" d="M187 61L188 62L187 61z"/>
<path style="fill:#c3e7ff; stroke:none;" d="M393 343C381.879 358.527 370.819 373.938 366.804 393C365.132 400.937 363.176 409.998 370 416C389.171 380.129 424.979 360.559 459 341.15C472.263 333.584 489.512 328.625 499.815 316.996C512.412 302.778 511.833 284.301 516 267C477.726 254.546 439.774 242.285 402 228.319C391.7 224.51 369.935 211.504 359.015 215.604C349.66 219.117 344.3 245.585 351.279 252.621C356.599 257.986 365.328 260.083 372 263.255C389.51 271.582 408.24 278.218 425 288C396.307 296.066 362.638 294.651 333 295.004C276.267 295.679 217.589 295.685 163 277.485C140.514 269.988 116.569 258.284 101.899 239C96.3821 231.748 90.6213 223.52 90.8796 214C91.2415 200.664 101.622 187.322 109.151 177C124.699 155.687 145.024 138.183 164 120.039C173.134 111.306 185.401 102.968 190.532 91C195.018 80.538 193.394 71.7935 192 61C184.692 61.7485 178.954 66.3641 173 70.3333C160.414 78.7243 148.288 87.7552 137 97.8341C97.8116 132.824 68.5809 180.756 73.8302 235C76.0391 257.826 82.7156 277.887 100 293.91C119.229 311.735 146.571 319.513 171 327.025C208.226 338.471 249.078 345.032 288 345.985C323.102 346.845 357.98 343 393 343z"/>
<path style="fill:#ceecff; stroke:none;" d="M185 62L186 63L185 62M183 63L184 64L183 63M192 64L193 65L192 64M180 65L181 66L180 65M177 67L178 68L177 67z"/>
<path style="fill:#d9f0ff; stroke:none;" d="M193.333 67.6667L193.667 68.3333L193.333 67.6667z"/>
<path style="fill:#ceecff; stroke:none;" d="M174 69L175 70L174 69M193 69L194 70L193 69M171 71L172 72L171 71M168 73L169 74L168 73M165 75L166 76L165 75M162 77L163 78L162 77M158 80L159 81L158 80M157 81L158 82L157 81M193 81L194 82L193 81z"/>
<path style="fill:#d9f0ff; stroke:none;" d="M193 82L194 83L193 82M154 83L155 84L154 83z"/>
<path style="fill:#ceecff; stroke:none;" d="M153 84L154 85L153 84M192 85L193 86L192 85z"/>
<path style="fill:#d9f0ff; stroke:none;" d="M150 86L151 87L150 86M192 86L193 87L192 86z"/>
<path style="fill:#ceecff; stroke:none;" d="M149 87L150 88L149 87M148 88L149 89L148 88M191 88L192 89L191 88z"/>
<path style="fill:#d9f0ff; stroke:none;" d="M145 90L146 91L145 90z"/>
<path style="fill:#ceecff; stroke:none;" d="M144 91L145 92L144 91z"/>
<path style="fill:#d9f0ff; stroke:none;" d="M190 91L191 92L190 91M139 95L140 96L139 95M138 96L139 97L138 96M187 96L188 97L187 96z"/>
<path style="fill:#ceecff; stroke:none;" d="M137 97L138 98L137 97M186 97L187 98L186 97M136 98L137 99L136 98M135 99L136 100L135 99z"/>
<path style="fill:#d9f0ff; stroke:none;" d="M184 100L185 101L184 100z"/>
<path style="fill:#ceecff; stroke:none;" d="M183 101L184 102L183 101M182 102L183 103L182 102M181 103L182 104L181 103M180 104L181 105L180 104M179 105L180 106L179 105M178 106L179 107L178 106z"/>
<path style="fill:#d9f0ff; stroke:none;" d="M177 107L178 108L177 107M125 108L126 109L125 108M176 108L177 109L176 108M124 109L125 110L124 109M175 109L176 110L175 109M123 110L124 111L123 110M122 111L123 112L122 111z"/>
<path style="fill:#ceecff; stroke:none;" d="M167 116L168 117L167 116M166 117L167 118L166 117M116 118L117 119L116 118M165 118L166 119L165 118M115 119L116 120L115 119M164 119L165 120L164 119M114 120L115 121L114 120z"/>
<path style="fill:#d9f0ff; stroke:none;" d="M163 120L164 121L163 120M113 121L114 122L113 121M162 121L163 122L162 121M161 122L162 123L161 122z"/>
<path style="fill:#ceecff; stroke:none;" d="M110 125L111 126L110 125z"/>
<path style="fill:#d9f0ff; stroke:none;" d="M109 126L110 127L109 126z"/>
<path style="fill:#ceecff; stroke:none;" d="M106 130L107 131L106 130M152 130L153 131L152 130z"/>
<path style="fill:#d9f0ff; stroke:none;" d="M105 131L106 132L105 131z"/>
<path style="fill:#ceecff; stroke:none;" d="M151 131L152 132L151 131M150 132L151 133L150 132M149 133L150 134L149 133M103 134L104 135L103 134M148 134L149 135L148 134z"/>
<path style="fill:#d9f0ff; stroke:none;" d="M102 135L103 136L102 135z"/>
<path style="fill:#ceecff; stroke:none;" d="M147 135L148 136L147 135M146 136L147 137L146 136z"/>
<path style="fill:#d9f0ff; stroke:none;" d="M145 137L146 138L145 137M100 138L101 139L100 138M144 138L145 139L144 138M143 139L144 140L143 139M142 140L143 141L142 140z"/>
<path style="fill:#ceecff; stroke:none;" d="M98 141L99 142L98 141z"/>
<path style="fill:#d9f0ff; stroke:none;" d="M141 141L142 142L141 141M96 144L97 145L96 144M94 147L95 148L94 147z"/>
<path style="fill:#ceecff; stroke:none;" d="M93 149L94 150L93 149M92 151L93 152L92 151z"/>
<path style="fill:#d9f0ff; stroke:none;" d="M89 156L90 157L89 156M88 158L89 159L88 158M123 159L124 160L123 159M87 160L88 161L87 160M122 160L123 161L122 160M121 161L122 162L121 161z"/>
<path style="fill:#ceecff; stroke:none;" d="M120 162L121 163L120 162M119 163L120 164L119 163M84 167L85 168L84 167z"/>
<path style="fill:#d9f0ff; stroke:none;" d="M83 169L84 170L83 169z"/>
<path style="fill:#ceecff; stroke:none;" d="M114 169L115 170L114 169M82 172L83 173L82 172M111 173L112 174L111 173M81 175L82 176L81 175M108 177L109 178L108 177M80 178L81 179L80 178z"/>
<path style="fill:#d9f0ff; stroke:none;" d="M106 180L107 181L106 180z"/>
<path style="fill:#ceecff; stroke:none;" d="M79 181L80 182L79 181z"/>
<path style="fill:#d9f0ff; stroke:none;" d="M104 183L105 184L104 183M78 184L79 185L78 184z"/>
<path style="fill:#ceecff; stroke:none;" d="M103 184L104 185L103 184z"/>
<path style="fill:#d9f0ff; stroke:none;" d="M102 186L103 187L102 186M77 188L78 189L77 188z"/>
<path style="fill:#ceecff; stroke:none;" d="M100 189L101 190L100 189z"/>
<path style="fill:#d9f0ff; stroke:none;" d="M99 191L100 192L99 191M76 192L77 193L76 192z"/>
<path style="fill:#ceecff; stroke:none;" d="M76 193L77 194L76 193M96 196L97 197L96 196z"/>
<path style="fill:#d9f0ff; stroke:none;" d="M75 197L76 198L75 197z"/>
<path style="fill:#ceecff; stroke:none;" d="M75 198L76 199L75 198M95 198L96 199L95 198M94 200L95 201L94 200M93 202L94 203L93 202z"/>
<path style="fill:#d9f0ff; stroke:none;" d="M74.3333 203.667L74.6667 204.333L74.3333 203.667z"/>
<path style="fill:#ceecff; stroke:none;" d="M74 205L75 206L74 205z"/>
<path style="fill:#d9f0ff; stroke:none;" d="M92 205L93 206L92 205M91 208L92 209L91 208M73 212L73 215L74 215L73 212z"/>
<path style="fill:#ceecff; stroke:none;" d="M90.3333 214.667L90.6667 215.333L90.3333 214.667M73.3333 215.667L73.6667 216.333L73.3333 215.667z"/>
<path style="fill:#d9f0ff; stroke:none;" d="M357 215L358 216L357 215z"/>
<path style="fill:#ceecff; stroke:none;" d="M366 215L367 216L366 215M356 216L357 217L356 216M369 216L370 217L369 216M355 217L356 218L355 217M372 217L373 218L372 217z"/>
<path style="fill:#d9f0ff; stroke:none;" d="M354 218L355 219L354 218z"/>
<path style="fill:#ceecff; stroke:none;" d="M375 218L376 219L375 218M378 219L379 220L378 219z"/>
<path style="fill:#d9f0ff; stroke:none;" d="M91 220L92 221L91 220M353 220L354 221L353 220M381 220L382 221L381 220z"/>
<path style="fill:#ceecff; stroke:none;" d="M383 221L384 222L383 221M386 222L387 223L386 222z"/>
<path style="fill:#d9f0ff; stroke:none;" d="M92 223L93 224L92 223z"/>
<path style="fill:#ceecff; stroke:none;" d="M352 223L353 224L352 223z"/>
<path style="fill:#d9f0ff; stroke:none;" d="M389 223L390 224L389 223z"/>
<path style="fill:#ceecff; stroke:none;" d="M391 224L392 225L391 224z"/>
<path style="fill:#d9f0ff; stroke:none;" d="M394 225L395 226L394 225z"/>
<path style="fill:#ceecff; stroke:none;" d="M93 226L94 227L93 226M351 226L352 227L351 226z"/>
<path style="fill:#d9f0ff; stroke:none;" d="M397 226L398 227L397 226z"/>
<path style="fill:#ceecff; stroke:none;" d="M399 227L400 228L399 227M94 228L95 229L94 228M402 228L403 229L402 228z"/>
<path style="fill:#d9f0ff; stroke:none;" d="M350 229L351 230L350 229M405 229L406 230L405 229z"/>
<path style="fill:#ceecff; stroke:none;" d="M350 230L351 231L350 230M407 230L408 231L407 230M96 231L97 232L96 231M410 231L411 232L410 231M73 232L73 235L74 235L73 232z"/>
<path style="fill:#d9f0ff; stroke:none;" d="M413 232L414 233L413 232M416 233L417 234L416 233z"/>
<path style="fill:#ceecff; stroke:none;" d="M98 234L99 235L98 234z"/>
<path style="fill:#d9f0ff; stroke:none;" d="M349 234L350 235L349 234z"/>
<path style="fill:#ceecff; stroke:none;" d="M418 234L419 235L418 234z"/>
<path style="fill:#d9f0ff; stroke:none;" d="M73.3333 235.667L73.6667 236.333L73.3333 235.667M421 235L422 236L421 235z"/>
<path style="fill:#ceecff; stroke:none;" d="M100 237L101 238L100 237M426 237L427 238L426 237z"/>
<path style="fill:#d9f0ff; stroke:none;" d="M101 238L102 239L101 238M348 238L349 239L348 238M429 238L430 239L429 238z"/>
<path style="fill:#ceecff; stroke:none;" d="M348 239L349 240L348 239M431 239L432 240L431 239z"/>
<path style="fill:#d9f0ff; stroke:none;" d="M434 240L435 241L434 240z"/>
<path style="fill:#ceecff; stroke:none;" d="M103 241L104 242L103 241z"/>
<path style="fill:#d9f0ff; stroke:none;" d="M437 241L438 242L437 241z"/>
<path style="fill:#ceecff; stroke:none;" d="M104 242L105 243L104 242M439 242L440 243L439 242M74 243L75 244L74 243M105 243L106 244L105 243M442 243L443 244L442 243z"/>
<path style="fill:#d9f0ff; stroke:none;" d="M74.3333 244.667L74.6667 245.333L74.3333 244.667M106 244L107 245L106 244z"/>
<path style="fill:#ceecff; stroke:none;" d="M445 244L446 245L445 244z"/>
<path style="fill:#d9f0ff; stroke:none;" d="M107 245L108 246L107 245M448 245L449 246L448 245M108 246L109 247L108 246M451 246L452 247L451 246z"/>
<path style="fill:#ceecff; stroke:none;" d="M109 247L110 248L109 247z"/>
<path style="fill:#d9f0ff; stroke:none;" d="M454 247L455 248L454 247z"/>
<path style="fill:#ceecff; stroke:none;" d="M110 248L111 249L110 248M348 248L349 249L348 248M456 248L457 249L456 248M75 249L76 250L75 249M111 249L112 250L111 249M459 249L460 250L459 249z"/>
<path style="fill:#d9f0ff; stroke:none;" d="M75 250L76 251L75 250z"/>
<path style="fill:#ceecff; stroke:none;" d="M462 250L463 251L462 250M465 251L466 252L465 251z"/>
<path style="fill:#d9f0ff; stroke:none;" d="M466 251L467 252L466 251M469 252L470 253L469 252M116 253L117 254L116 253M472 253L473 254L472 253M76 254L77 255L76 254z"/>
<path style="fill:#ceecff; stroke:none;" d="M117 254L118 255L117 254M353 254L354 255L353 254M475 254L476 255L475 254M355 255L356 256L355 255M478 255L479 256L478 255z"/>
<path style="fill:#d9f0ff; stroke:none;" d="M479 255L480 256L479 255M120 256L121 257L120 256M482 256L483 257L482 256z"/>
<path style="fill:#ceecff; stroke:none;" d="M77 257L78 258L77 257M121 257L122 258L121 257z"/>
<path style="fill:#d9f0ff; stroke:none;" d="M358 257L359 258L358 257z"/>
<path style="fill:#ceecff; stroke:none;" d="M485 257L486 258L485 257M361 258L362 259L361 258M488 258L489 259L488 258z"/>
<path style="fill:#d9f0ff; stroke:none;" d="M489 258L490 259L489 258z"/>
<path style="fill:#ceecff; stroke:none;" d="M124 259L125 260L124 259z"/>
<path style="fill:#d9f0ff; stroke:none;" d="M363 259L364 260L363 259M492 259L493 260L492 259M126 260L127 261L126 260z"/>
<path style="fill:#ceecff; stroke:none;" d="M495 260L496 261L495 260z"/>
<path style="fill:#d9f0ff; stroke:none;" d="M78 261L79 262L78 261z"/>
<path style="fill:#ceecff; stroke:none;" d="M127 261L128 262L127 261M368 261L369 262L368 261M498 261L499 262L498 261z"/>
<path style="fill:#d9f0ff; stroke:none;" d="M499 261L500 262L499 261M129 262L130 263L129 262z"/>
<path style="fill:#ceecff; stroke:none;" d="M370 262L371 263L370 262z"/>
<path style="fill:#d9f0ff; stroke:none;" d="M502 262L503 263L502 262z"/>
<path style="fill:#ceecff; stroke:none;" d="M79 263L80 264L79 263z"/>
<path style="fill:#d9f0ff; stroke:none;" d="M131 263L132 264L131 263M372 263L373 264L372 263z"/>
<path style="fill:#ceecff; stroke:none;" d="M505 263L506 264L505 263z"/>
<path style="fill:#d9f0ff; stroke:none;" d="M374 264L375 265L374 264z"/>
<path style="fill:#ceecff; stroke:none;" d="M508 264L509 265L508 264M134 265L135 266L134 265z"/>
<path style="fill:#d9f0ff; stroke:none;" d="M376 265L377 266L376 265z"/>
<path style="fill:#ceecff; stroke:none;" d="M511 265L512 266L511 265z"/>
<path style="fill:#d9f0ff; stroke:none;" d="M80 266L81 267L80 266z"/>
<path style="fill:#ceecff; stroke:none;" d="M136 266L137 267L136 266M379 266L380 267L379 266M514 266L515 267L514 266M138 267L139 268L138 267M381 267L382 268L381 267M81 268L82 269L81 268M140 268L141 269L140 268z"/>
<path style="fill:#d9f0ff; stroke:none;" d="M383 268L384 269L383 268z"/>
<path style="fill:#ceecff; stroke:none;" d="M515 268L516 269L515 268M142 269L143 270L142 269z"/>
<path style="fill:#d9f0ff; stroke:none;" d="M385 269L386 270L385 269M515.333 269.667L515.667 270.333L515.333 269.667z"/>
<path style="fill:#ceecff; stroke:none;" d="M82 270L83 271L82 270M390 271L391 272L390 271M83 272L84 273L83 272z"/>
<path style="fill:#d9f0ff; stroke:none;" d="M149 272L150 273L149 272z"/>
<path style="fill:#ceecff; stroke:none;" d="M392 272L393 273L392 272z"/>
<path style="fill:#d9f0ff; stroke:none;" d="M152 273L153 274L152 273M394 273L395 274L394 273z"/>
<path style="fill:#ceecff; stroke:none;" d="M84 274L85 275L84 274M154 274L155 275L154 274z"/>
<path style="fill:#d9f0ff; stroke:none;" d="M396 274L397 275L396 274z"/>
<path style="fill:#ceecff; stroke:none;" d="M157 275L158 276L157 275M514.333 275.667L514.667 276.333L514.333 275.667z"/>
<path style="fill:#d9f0ff; stroke:none;" d="M85 276L86 277L85 276M160 276L161 277L160 276z"/>
<path style="fill:#ceecff; stroke:none;" d="M401 276L402 277L401 276M162 277L163 278L162 277z"/>
<path style="fill:#d9f0ff; stroke:none;" d="M163 277L164 278L163 277z"/>
<path style="fill:#ceecff; stroke:none;" d="M403 277L404 278L403 277z"/>
<path style="fill:#d9f0ff; stroke:none;" d="M514 277L515 278L514 277M166 278L167 279L166 278M405 278L406 279L405 278M87 279L88 280L87 279M169 279L170 280L169 279M407 279L408 280L407 279z"/>
<path style="fill:#ceecff; stroke:none;" d="M172 280L173 281L172 280z"/>
<path style="fill:#d9f0ff; stroke:none;" d="M176 281L177 282L176 281z"/>
<path style="fill:#ceecff; stroke:none;" d="M412 281L413 282L412 281z"/>
<path style="fill:#d9f0ff; stroke:none;" d="M89 282L90 283L89 282z"/>
<path style="fill:#ceecff; stroke:none;" d="M179 282L180 283L179 282z"/>
<path style="fill:#d9f0ff; stroke:none;" d="M180 282L181 283L180 282z"/>
<path style="fill:#ceecff; stroke:none;" d="M414 282L415 283L414 282M513 282L514 283L513 282M90 283L91 284L90 283M183 283L184 284L183 283z"/>
<path style="fill:#d9f0ff; stroke:none;" d="M184 283L185 284L184 283z"/>
<path style="fill:#ceecff; stroke:none;" d="M416 283L417 284L416 283z"/>
<path style="fill:#d9f0ff; stroke:none;" d="M513.333 283.667L513.667 284.333L513.333 283.667z"/>
<path style="fill:#ceecff; stroke:none;" d="M187 284L188 285L187 284z"/>
<path style="fill:#d9f0ff; stroke:none;" d="M188 284L189 285L188 284M418 284L419 285L418 284M192 285L193 286L192 285M420 285L421 286L420 285z"/>
<path style="fill:#ceecff; stroke:none;" d="M196 286L197 287L196 286z"/>
<path style="fill:#d9f0ff; stroke:none;" d="M197 286L198 287L197 286M422 286L423 287L422 286z"/>
<path style="fill:#ceecff; stroke:none;" d="M201 287L202 288L201 287z"/>
<path style="fill:#d9f0ff; stroke:none;" d="M202 287L203 288L202 287M424 287L425 288L424 287z"/>
<path style="fill:#ceecff; stroke:none;" d="M207 288L208 289L207 288z"/>
<path style="fill:#d9f0ff; stroke:none;" d="M208 288L209 289L208 288M423 288L424 289L423 288z"/>
<path style="fill:#ceecff; stroke:none;" d="M512 288L513 289L512 288z"/>
<path style="fill:#d9f0ff; stroke:none;" d="M95 289L96 290L95 289z"/>
<path style="fill:#ceecff; stroke:none;" d="M214 289L215 290L214 289z"/>
<path style="fill:#d9f0ff; stroke:none;" d="M215.667 289.333L216.333 289.667L215.667 289.333z"/>
<path style="fill:#ceecff; stroke:none;" d="M419 289L420 290L419 289z"/>
<path style="fill:#d9f0ff; stroke:none;" d="M512 289L513 290L512 289M96 290L97 291L96 290z"/>
<path style="fill:#ceecff; stroke:none;" d="M222 290L223 291L222 290z"/>
<path style="fill:#d9f0ff; stroke:none;" d="M223 290L224 291L223 290M411.667 290.333L412.333 290.667L411.667 290.333z"/>
<path style="fill:#ceecff; stroke:none;" d="M413.667 290.333L414.333 290.667L413.667 290.333z"/>
<path style="fill:#d9f0ff; stroke:none;" d="M97 291L98 292L97 291z"/>
<path style="fill:#ceecff; stroke:none;" d="M229.667 291.333L230.333 291.667L229.667 291.333z"/>
<path style="fill:#d9f0ff; stroke:none;" d="M231 291L232 292L231 291M398 291L398 292L401 292L398 291z"/>
<path style="fill:#ceecff; stroke:none;" d="M401.667 291.333L402.333 291.667L401.667 291.333z"/>
<path style="fill:#d9f0ff; stroke:none;" d="M98 292L99 293L98 292z"/>
<path style="fill:#ceecff; stroke:none;" d="M239.667 292.333L240.333 292.667L239.667 292.333z"/>
<path style="fill:#d9f0ff; stroke:none;" d="M241.667 292.333L242.333 292.667L241.667 292.333M385 292L385 293L388 293L385 292z"/>
<path style="fill:#ceecff; stroke:none;" d="M388.667 292.333L389.333 292.667L388.667 292.333z"/>
<path style="fill:#d9f0ff; stroke:none;" d="M99 293L100 294L99 293z"/>
<path style="fill:#ceecff; stroke:none;" d="M252 293L252 294L255 294L252 293z"/>
<path style="fill:#d9f0ff; stroke:none;" d="M255 293L255 294L258 294L255 293M371.667 293.333L372.333 293.667L371.667 293.333z"/>
<path style="fill:#ceecff; stroke:none;" d="M373 293L373 294L376 294L373 293z"/>
<path style="fill:#d9f0ff; stroke:none;" d="M511 293L512 294L511 293z"/>
<path style="fill:#ceecff; stroke:none;" d="M268 294L268 295L271 295L268 294z"/>
<path style="fill:#d9f0ff; stroke:none;" d="M271 294L271 295L276 295L271 294M351 294L351 295L356 295L351 294z"/>
<path style="fill:#ceecff; stroke:none;" d="M356 294L356 295L360 295L356 294M300 295L300 296L327 296L300 295M510 296L511 297L510 296M104 297L105 298L104 297z"/>
<path style="fill:#d9f0ff; stroke:none;" d="M105 298L106 299L105 298z"/>
<path style="fill:#ceecff; stroke:none;" d="M509 299L510 300L509 299M108 300L109 301L108 300z"/>
<path style="fill:#d9f0ff; stroke:none;" d="M111 302L112 303L111 302M508 302L509 303L508 302z"/>
<path style="fill:#ceecff; stroke:none;" d="M113 303L114 304L113 303M507 304L508 305L507 304z"/>
<path style="fill:#d9f0ff; stroke:none;" d="M116 305L117 306L116 305z"/>
<path style="fill:#ceecff; stroke:none;" d="M118 306L119 307L118 306M506 306L507 307L506 306M120 307L121 308L120 307M122 308L123 309L122 308M505 308L506 309L505 308M504 310L505 311L504 310M130 312L131 313L130 312z"/>
<path style="fill:#d9f0ff; stroke:none;" d="M132 313L133 314L132 313z"/>
<path style="fill:#ceecff; stroke:none;" d="M502 313L503 314L502 313z"/>
<path style="fill:#d9f0ff; stroke:none;" d="M134 314L135 315L134 314z"/>
<path style="fill:#ceecff; stroke:none;" d="M137 315L138 316L137 315M139 316L140 317L139 316M144 318L145 319L144 318z"/>
<path style="fill:#d9f0ff; stroke:none;" d="M498 318L499 319L498 318M146 319L147 320L146 319M497 319L498 320L497 319z"/>
<path style="fill:#ceecff; stroke:none;" d="M149 320L150 321L149 320z"/>
<path style="fill:#d9f0ff; stroke:none;" d="M496 320L497 321L496 320M152 321L153 322L152 321M495 321L496 322L495 321M155 322L156 323L155 322M158 323L159 324L158 323z"/>
<path style="fill:#ceecff; stroke:none;" d="M159 323L160 324L159 323M492 323L493 324L492 323M162 324L163 325L162 324z"/>
<path style="fill:#d9f0ff; stroke:none;" d="M165 325L166 326L165 325M489 325L490 326L489 325z"/>
<path style="fill:#ceecff; stroke:none;" d="M169 326L170 327L169 326z"/>
<path style="fill:#d9f0ff; stroke:none;" d="M487 326L488 327L487 326z"/>
<path style="fill:#ceecff; stroke:none;" d="M172 327L173 328L172 327z"/>
<path style="fill:#d9f0ff; stroke:none;" d="M485 327L486 328L485 327z"/>
<path style="fill:#ceecff; stroke:none;" d="M175 328L176 329L175 328z"/>
<path style="fill:#d9f0ff; stroke:none;" d="M483 328L484 329L483 328M178 329L179 330L178 329z"/>
<path style="fill:#ceecff; stroke:none;" d="M179 329L180 330L179 329z"/>
<path style="fill:#d9f0ff; stroke:none;" d="M481 329L482 330L481 329M182 330L183 331L182 330M479 330L480 331L479 330M185 331L186 332L185 331z"/>
<path style="fill:#ceecff; stroke:none;" d="M186 331L187 332L186 331z"/>
<path style="fill:#d9f0ff; stroke:none;" d="M189 332L190 333L189 332M193 333L194 334L193 333z"/>
<path style="fill:#ceecff; stroke:none;" d="M472 333L473 334L472 333z"/>
<path style="fill:#d9f0ff; stroke:none;" d="M197 334L198 335L197 334z"/>
<path style="fill:#ceecff; stroke:none;" d="M198 334L199 335L198 334z"/>
<path style="fill:#d9f0ff; stroke:none;" d="M202 335L203 336L202 335z"/>
<path style="fill:#ceecff; stroke:none;" d="M203 335L204 336L203 335z"/>
<path style="fill:#d9f0ff; stroke:none;" d="M208 336L209 337L208 336z"/>
<path style="fill:#ceecff; stroke:none;" d="M209 336L210 337L209 336M389 336L390 337L389 336z"/>
<path style="fill:#d9f0ff; stroke:none;" d="M390 336L391 337L390 336z"/>
<path style="fill:#eaf7ff; stroke:none;" d="M391 336L392 337L391 336z"/>
<path style="fill:#d9f0ff; stroke:none;" d="M467 336L468 337L467 336M218 337L219 338L218 337z"/>
<path style="fill:#ceecff; stroke:none;" d="M219.667 337.333L220.333 337.667L219.667 337.333M385 337L386 338L385 337z"/>
<path style="fill:#d9f0ff; stroke:none;" d="M386 337L387 338L386 337z"/>
<path style="fill:#eaf7ff; stroke:none;" d="M387 337L388 338L387 337z"/>
<path style="fill:#ffffff; stroke:none;" d="M384 338L384 339L392 338L384 338z"/>
<path style="fill:#d9f0ff; stroke:none;" d="M465 337L466 338L465 337M225 338L226 339L225 338z"/>
<path style="fill:#ceecff; stroke:none;" d="M360 338L360 339L366 339L360 338z"/>
<path style="fill:#d9f0ff; stroke:none;" d="M382 338L385 340L385 339L382 338z"/>
<path style="fill:#eaf7ff; stroke:none;" d="M383 338L384 339L383 338M390.667 338.333L391.333 338.667L390.667 338.333z"/>
<path style="fill:#ceecff; stroke:none;" d="M392 338L393 339L392 338M463 338L464 339L463 338z"/>
<path style="fill:#d9f0ff; stroke:none;" d="M229 339L230 340L229 339z"/>
<path style="fill:#ceecff; stroke:none;" d="M230 339L231 340L230 339M252 339L253 340L252 339z"/>
<path style="fill:#eaf7ff; stroke:none;" d="M253 339L255 341L255 339L253 339z"/>
<path style="fill:#d9f0ff; stroke:none;" d="M255.667 339.333L256.333 339.667L255.667 339.333z"/>
<path style="fill:#ceecff; stroke:none;" d="M257 339L258 340L257 339M331 339L331 340L335 340L331 339z"/>
<path style="fill:#d9f0ff; stroke:none;" d="M335 339L335 340L340 340L335 339z"/>
<path style="fill:#eaf7ff; stroke:none;" d="M340 339L340 340L350 340L340 339z"/>
<path style="fill:#ffffff; stroke:none;" d="M318 341L318 342L372 341C358.424 333.782 332.992 340.691 318 341z"/>
<path style="fill:#eaf7ff; stroke:none;" d="M368.667 339.333L369.333 339.667L368.667 339.333z"/>
<path style="fill:#ceecff; stroke:none;" d="M370 339L371 340L370 339M378 339L377 341L379 341L378 339z"/>
<path style="fill:#d9f0ff; stroke:none;" d="M379 339L380 340L379 339z"/>
<path style="fill:#eaf7ff; stroke:none;" d="M380 339L380 340L383 340L380 339z"/>
<path style="fill:#ceecff; stroke:none;" d="M385.667 339.333L386.333 339.667L385.667 339.333M461 339L462 340L461 339z"/>
<path style="fill:#d9f0ff; stroke:none;" d="M233 340L234 341L233 340z"/>
<path style="fill:#ceecff; stroke:none;" d="M234 340L235 341L234 340z"/>
<path style="fill:#d9f0ff; stroke:none;" d="M253 340L254 341L253 340z"/>
<path style="fill:#ffffff; stroke:none;" d="M255.667 340.333L256.333 340.667L255.667 340.333z"/>
<path style="fill:#eaf7ff; stroke:none;" d="M257 340L258 341L257 340z"/>
<path style="fill:#ceecff; stroke:none;" d="M292 343L293 343L311 341C306.231 338.999 295.033 338.322 292 343z"/>
<path style="fill:#d9f0ff; stroke:none;" d="M315 340L315 341L319 341L315 340z"/>
<path style="fill:#eaf7ff; stroke:none;" d="M319 340L319 341L325 341L319 340M372 340L373 341L372 340z"/>
<path style="fill:#ceecff; stroke:none;" d="M373 340L374 341L373 340z"/>
<path style="fill:#d9f0ff; stroke:none;" d="M237 341L238 342L237 341z"/>
<path style="fill:#ceecff; stroke:none;" d="M238 341L239 342L238 341z"/>
<path style="fill:#ffffff; stroke:none;" d="M293 341L293 343L305 342L293 341z"/>
<path style="fill:#eaf7ff; stroke:none;" d="M305.667 341.333L306.333 341.667L305.667 341.333z"/>
<path style="fill:#d9f0ff; stroke:none;" d="M307 341L308 342L307 341z"/>
<path style="fill:#eaf7ff; stroke:none;" d="M317 341L318 342L317 341M353 341L353 342L359 342L353 341z"/>
<path style="fill:#d9f0ff; stroke:none;" d="M359 341L359 342L364 342L359 341z"/>
<path style="fill:#ceecff; stroke:none;" d="M364 341L364 342L367 342L364 341z"/>
<path style="fill:#d9f0ff; stroke:none;" d="M242 342L243 343L242 342z"/>
<path style="fill:#ceecff; stroke:none;" d="M243 342L244 343L243 342z"/>
<path style="fill:#eaf7ff; stroke:none;" d="M299 342L300 343L299 342z"/>
<path style="fill:#d9f0ff; stroke:none;" d="M300.667 342.333L301.333 342.667L300.667 342.333z"/>
<path style="fill:#ceecff; stroke:none;" d="M302 342L303 343L302 342M319 342L320 343L319 342z"/>
<path style="fill:#d9f0ff; stroke:none;" d="M320.667 342.333L321.333 342.667L320.667 342.333z"/>
<path style="fill:#eaf7ff; stroke:none;" d="M322 342L322 343L332 343L322 342z"/>
<path style="fill:#d9f0ff; stroke:none;" d="M332 342L332 343L340 343L332 342z"/>
<path style="fill:#ceecff; stroke:none;" d="M340 342L340 343L346 343L340 342z"/>
<path style="fill:#d9f0ff; stroke:none;" d="M456 342L457 343L456 342M250.667 343.333L251.333 343.667L250.667 343.333z"/>
<path style="fill:#ceecff; stroke:none;" d="M252.667 343.333L253.333 343.667L252.667 343.333z"/>
<path style="fill:#eaf7ff; stroke:none;" d="M293 343L294 344L293 343z"/>
<path style="fill:#d9f0ff; stroke:none;" d="M294.667 343.333L295.333 343.667L294.667 343.333z"/>
<path style="fill:#ceecff; stroke:none;" d="M296 343L297 344L296 343M376 343L376 344L379 344L376 343z"/>
<path style="fill:#d9f0ff; stroke:none;" d="M379 343L379 344L383 344L379 343z"/>
<path style="fill:#ceecff; stroke:none;" d="M454 343L455 344L454 343z"/>
<path style="fill:#d9f0ff; stroke:none;" d="M260 344L260 345L263 345L260 344z"/>
<path style="fill:#ceecff; stroke:none;" d="M263 344L263 345L266 345L263 344M355 344L355 345L359 345L355 344z"/>
<path style="fill:#d9f0ff; stroke:none;" d="M359 344L359 345L364 345L359 344M276 345L276 346L279 346L276 345z"/>
<path style="fill:#ceecff; stroke:none;" d="M279 345L279 346L283 346L279 345M325 345L325 346L331 346L325 345z"/>
<path style="fill:#d9f0ff; stroke:none;" d="M331 345L331 346L337 346L331 345z"/>
<path style="fill:#ceecff; stroke:none;" d="M391 345L392 346L391 345z"/>
<path style="fill:#d9f0ff; stroke:none;" d="M390 346L391 347L390 346M449 346L450 347L449 346z"/>
<path style="fill:#ceecff; stroke:none;" d="M447 347L448 348L447 347M445 348L446 349L445 348M388 349L389 350L388 349z"/>
<path style="fill:#d9f0ff; stroke:none;" d="M442 350L443 351L442 350z"/>
<path style="fill:#ceecff; stroke:none;" d="M440 351L441 352L440 351M386 352L387 353L386 352M438 352L439 353L438 352z"/>
<path style="fill:#d9f0ff; stroke:none;" d="M385 353L386 354L385 353M435 354L436 355L435 354z"/>
<path style="fill:#ceecff; stroke:none;" d="M433 355L434 356L433 355M383 356L384 357L383 356z"/>
<path style="fill:#d9f0ff; stroke:none;" d="M430 357L431 358L430 357z"/>
<path style="fill:#ceecff; stroke:none;" d="M428 358L429 359L428 358M381 359L382 360L381 359z"/>
<path style="fill:#d9f0ff; stroke:none;" d="M425 360L426 361L425 360z"/>
<path style="fill:#ceecff; stroke:none;" d="M423 361L424 362L423 361M379 362L380 363L379 362M420 363L421 364L420 363z"/>
<path style="fill:#d9f0ff; stroke:none;" d="M419 364L420 365L419 364M377 365L378 366L377 365z"/>
<path style="fill:#ceecff; stroke:none;" d="M417 365L418 366L417 365z"/>
<path style="fill:#d9f0ff; stroke:none;" d="M416 366L417 367L416 366z"/>
<path style="fill:#ceecff; stroke:none;" d="M376 367L377 368L376 367M413 368L414 369L413 368M375 369L376 370L375 369M410 370L411 371L410 370M374 371L375 372L374 371M409 371L410 372L409 371z"/>
<path style="fill:#d9f0ff; stroke:none;" d="M408 372L409 373L408 372z"/>
<path style="fill:#ceecff; stroke:none;" d="M373 373L374 374L373 373z"/>
<path style="fill:#d9f0ff; stroke:none;" d="M372 375L373 376L372 375z"/>
<path style="fill:#ceecff; stroke:none;" d="M404 375L405 376L404 375M403 376L404 377L403 376z"/>
<path style="fill:#d9f0ff; stroke:none;" d="M402 377L403 378L402 377M370 380L371 381L370 380z"/>
<path style="fill:#ceecff; stroke:none;" d="M398 380L399 381L398 380M397 381L398 382L397 381M396 382L397 383L396 382M369 383L370 384L369 383z"/>
<path style="fill:#d9f0ff; stroke:none;" d="M395 383L396 384L395 383z"/>
<path style="fill:#ceecff; stroke:none;" d="M368 386L369 387L368 386z"/>
<path style="fill:#d9f0ff; stroke:none;" d="M367 389L368 390L367 389z"/>
<path style="fill:#ceecff; stroke:none;" d="M387 390L388 391L387 390M386 391L387 392L386 391z"/>
<path style="fill:#d9f0ff; stroke:none;" d="M366 393L367 394L366 393z"/>
<path style="fill:#ceecff; stroke:none;" d="M366 394L367 395L366 394M382 396L383 397L382 396z"/>
<path style="fill:#d9f0ff; stroke:none;" d="M365 398L366 399L365 398z"/>
<path style="fill:#ceecff; stroke:none;" d="M365 399L366 400L365 399z"/>
<path style="fill:#d9f0ff; stroke:none;" d="M380 399L381 400L380 399M378 402L379 403L378 402M376 405L377 406L376 405z"/>
<path style="fill:#ceecff; stroke:none;" d="M365 408L366 409L365 408z"/>
<path style="fill:#d9f0ff; stroke:none;" d="M374 408L375 409L374 408M365 409L366 410L365 409z"/>
<path style="fill:#ceecff; stroke:none;" d="M373 409L374 410L373 409z"/>
<path style="fill:#d9f0ff; stroke:none;" d="M372 411L373 412L372 411z"/>
<path style="fill:#ceecff; stroke:none;" d="M370 414L371 415L370 414M368 415L369 416L368 415z"/>
</svg>
